<svg width="481" height="109" viewBox="0 0 481 109" fill="none" xmlns="http://www.w3.org/2000/svg">
<path d="M10.3647 98.9643V103.402C10.2149 103.624 9.97621 103.873 9.64876 104.151C9.3213 104.423 8.86897 104.661 8.29177 104.867C7.72011 105.067 6.98196 105.167 6.0773 105.167C5.33914 105.167 4.65926 105.039 4.03766 104.784C3.4216 104.523 2.88602 104.145 2.43092 103.651C1.98137 103.152 1.63171 102.547 1.38196 101.836C1.13776 101.121 1.01566 100.31 1.01566 99.4056V98.4648C1.01566 97.5602 1.12111 96.7526 1.33201 96.0422C1.54846 95.3318 1.86482 94.7296 2.28107 94.2357C2.69732 93.7362 3.20793 93.3588 3.81288 93.1035C4.41784 92.8426 5.11159 92.7122 5.89415 92.7122C6.82101 92.7122 7.59524 92.8731 8.21684 93.1951C8.844 93.5114 9.3324 93.9499 9.68206 94.5104C10.0373 95.071 10.2648 95.7092 10.3647 96.4252H8.75797C8.68582 95.9867 8.54152 95.5871 8.32507 95.2264C8.11417 94.8656 7.81169 94.577 7.41764 94.3606C7.02358 94.1386 6.51575 94.0276 5.89415 94.0276C5.33359 94.0276 4.84797 94.1302 4.43726 94.3356C4.02656 94.5409 3.68801 94.8351 3.4216 95.218C3.1552 95.601 2.9554 96.0644 2.8222 96.6083C2.69455 97.1522 2.63072 97.7655 2.63072 98.4482V99.4056C2.63072 100.105 2.7112 100.729 2.87215 101.279C3.03865 101.828 3.27453 102.297 3.57978 102.686C3.88503 103.069 4.24856 103.36 4.67036 103.56C5.09772 103.76 5.56947 103.859 6.08563 103.859C6.65728 103.859 7.12071 103.812 7.47591 103.718C7.83112 103.618 8.10862 103.501 8.30842 103.368C8.50822 103.23 8.66085 103.099 8.7663 102.977V100.263H5.96075V98.9643H10.3647ZM16.5336 105.167C15.9064 105.167 15.3376 105.061 14.8269 104.85C14.3219 104.634 13.8862 104.331 13.5199 103.943C13.1592 103.554 12.8817 103.094 12.6874 102.561C12.4932 102.028 12.396 101.445 12.396 100.812V100.463C12.396 99.7302 12.5043 99.0781 12.7207 98.5064C12.9372 97.9292 13.2313 97.4408 13.6032 97.0412C13.975 96.6416 14.3968 96.3392 14.8686 96.1338C15.3403 95.9284 15.8287 95.8258 16.3338 95.8258C16.9776 95.8258 17.5326 95.9368 17.9988 96.1588C18.4706 96.3808 18.8563 96.6916 19.156 97.0912C19.4557 97.4852 19.6777 97.9514 19.822 98.4898C19.9663 99.0226 20.0384 99.6054 20.0384 100.238V100.929H13.3118V99.672H18.4983V99.5554C18.4761 99.1558 18.3929 98.7673 18.2486 98.3899C18.1098 98.0125 17.8878 97.7017 17.5825 97.4575C17.2773 97.2133 16.861 97.0912 16.3338 97.0912C15.9841 97.0912 15.6622 97.1661 15.3681 97.316C15.0739 97.4603 14.8214 97.6767 14.6105 97.9653C14.3996 98.2539 14.2359 98.6063 14.1193 99.0226C14.0028 99.4389 13.9445 99.9189 13.9445 100.463V100.812C13.9445 101.24 14.0028 101.642 14.1193 102.02C14.2414 102.391 14.4162 102.719 14.6438 103.002C14.8769 103.285 15.1572 103.507 15.4846 103.668C15.8176 103.829 16.195 103.909 16.6168 103.909C17.1607 103.909 17.6214 103.798 17.9988 103.576C18.3762 103.354 18.7064 103.057 18.9895 102.686L19.9219 103.427C19.7276 103.721 19.4807 104.001 19.181 104.267C18.8813 104.534 18.5122 104.75 18.0737 104.917C17.6408 105.083 17.1274 105.167 16.5336 105.167ZM23.3768 97.9154V105H21.8367V95.9923H23.2935L23.3768 97.9154ZM23.0105 100.155L22.3695 100.13C22.375 99.5138 22.4666 98.9449 22.6442 98.4232C22.8218 97.8959 23.0715 97.4381 23.3934 97.0496C23.7153 96.6611 24.0983 96.3614 24.5423 96.1505C24.9919 95.934 25.4886 95.8258 26.0325 95.8258C26.4765 95.8258 26.8761 95.8868 27.2313 96.0089C27.5865 96.1255 27.889 96.3142 28.1387 96.575C28.394 96.8359 28.5883 97.1744 28.7215 97.5907C28.8547 98.0014 28.9213 98.5037 28.9213 99.0975V105H27.3728V99.0809C27.3728 98.6091 27.3035 98.2317 27.1647 97.9487C27.026 97.6601 26.8234 97.4519 26.557 97.3243C26.2906 97.1911 25.9631 97.1245 25.5746 97.1245C25.1917 97.1245 24.842 97.205 24.5257 97.3659C24.2149 97.5269 23.9457 97.7489 23.7181 98.0319C23.4961 98.315 23.3213 98.6396 23.1936 99.006C23.0715 99.3667 23.0105 99.7497 23.0105 100.155ZM36.7718 102.919V95.9923H38.3203V105H36.8468L36.7718 102.919ZM37.0632 101.021L37.7042 101.004C37.7042 101.603 37.6404 102.158 37.5128 102.669C37.3907 103.174 37.1909 103.612 36.9134 103.984C36.6359 104.356 36.2723 104.648 35.8228 104.858C35.3732 105.064 34.8265 105.167 34.1827 105.167C33.7443 105.167 33.3419 105.103 32.9756 104.975C32.6148 104.847 32.304 104.65 32.0432 104.384C31.7823 104.118 31.5798 103.771 31.4355 103.343C31.2967 102.916 31.2273 102.403 31.2273 101.803V95.9923H32.7675V101.82C32.7675 102.225 32.8119 102.561 32.9007 102.827C32.995 103.088 33.1199 103.296 33.2753 103.452C33.4363 103.601 33.6139 103.707 33.8081 103.768C34.0079 103.829 34.2133 103.859 34.4242 103.859C35.0791 103.859 35.598 103.735 35.9809 103.485C36.3639 103.23 36.6386 102.888 36.8051 102.461C36.9772 102.028 37.0632 101.548 37.0632 101.021ZM42.3413 95.9923V105H40.7928V95.9923H42.3413ZM40.6763 93.603C40.6763 93.3532 40.7512 93.1423 40.9011 92.9703C41.0565 92.7982 41.284 92.7122 41.5837 92.7122C41.8779 92.7122 42.1027 92.7982 42.2581 92.9703C42.419 93.1423 42.4995 93.3532 42.4995 93.603C42.4995 93.8416 42.419 94.047 42.2581 94.219C42.1027 94.3855 41.8779 94.4688 41.5837 94.4688C41.284 94.4688 41.0565 94.3855 40.9011 94.219C40.7512 94.047 40.6763 93.8416 40.6763 93.603ZM46.354 97.9154V105H44.8138V95.9923H46.2707L46.354 97.9154ZM45.9877 100.155L45.3467 100.13C45.3522 99.5138 45.4438 98.9449 45.6214 98.4232C45.799 97.8959 46.0487 97.4381 46.3706 97.0496C46.6925 96.6611 47.0755 96.3614 47.5195 96.1505C47.9691 95.934 48.4658 95.8258 49.0097 95.8258C49.4537 95.8258 49.8533 95.8868 50.2085 96.0089C50.5637 96.1255 50.8662 96.3142 51.1159 96.575C51.3712 96.8359 51.5655 97.1744 51.6987 97.5907C51.8319 98.0014 51.8985 98.5037 51.8985 99.0975V105H50.35V99.0809C50.35 98.6091 50.2806 98.2317 50.1419 97.9487C50.0031 97.6601 49.8006 97.4519 49.5342 97.3243C49.2678 97.1911 48.9403 97.1245 48.5518 97.1245C48.1689 97.1245 47.8192 97.205 47.5028 97.3659C47.192 97.5269 46.9229 97.7489 46.6953 98.0319C46.4733 98.315 46.2985 98.6396 46.1708 99.006C46.0487 99.3667 45.9877 99.7497 45.9877 100.155ZM57.9758 105.167C57.3486 105.167 56.7797 105.061 56.2691 104.85C55.7641 104.634 55.3284 104.331 54.9621 103.943C54.6014 103.554 54.3239 103.094 54.1296 102.561C53.9353 102.028 53.8382 101.445 53.8382 100.812V100.463C53.8382 99.7302 53.9464 99.0781 54.1629 98.5064C54.3794 97.9292 54.6735 97.4408 55.0454 97.0412C55.4172 96.6416 55.839 96.3392 56.3108 96.1338C56.7825 95.9284 57.2709 95.8258 57.776 95.8258C58.4198 95.8258 58.9748 95.9368 59.441 96.1588C59.9127 96.3808 60.2985 96.6916 60.5982 97.0912C60.8979 97.4852 61.1199 97.9514 61.2642 98.4898C61.4085 99.0226 61.4806 99.6054 61.4806 100.238V100.929H54.754V99.672H59.9405V99.5554C59.9183 99.1558 59.835 98.7673 59.6907 98.3899C59.552 98.0125 59.33 97.7017 59.0247 97.4575C58.7195 97.2133 58.3032 97.0912 57.776 97.0912C57.4263 97.0912 57.1044 97.1661 56.8103 97.316C56.5161 97.4603 56.2636 97.6767 56.0527 97.9653C55.8418 98.2539 55.6781 98.6063 55.5615 99.0226C55.445 99.4389 55.3867 99.9189 55.3867 100.463V100.812C55.3867 101.24 55.445 101.642 55.5615 102.02C55.6836 102.391 55.8584 102.719 56.086 103.002C56.3191 103.285 56.5994 103.507 56.9268 103.668C57.2598 103.829 57.6372 103.909 58.059 103.909C58.6029 103.909 59.0636 103.798 59.441 103.576C59.8184 103.354 60.1486 103.057 60.4317 102.686L61.3641 103.427C61.1698 103.721 60.9229 104.001 60.6232 104.267C60.3235 104.534 59.9544 104.75 59.5159 104.917C59.083 105.083 58.5696 105.167 57.9758 105.167ZM73.9599 103.61L77.0402 106.049L75.9579 107.048L72.9276 104.642L73.9599 103.61ZM76.9986 98.5564V99.3223C76.9986 100.233 76.8848 101.048 76.6572 101.77C76.4297 102.491 76.1022 103.105 75.6749 103.61C75.2475 104.115 74.7341 104.5 74.1347 104.767C73.5409 105.033 72.8749 105.167 72.1367 105.167C71.4208 105.167 70.7631 105.033 70.1637 104.767C69.5698 104.5 69.0537 104.115 68.6152 103.61C68.1823 103.105 67.8465 102.491 67.6079 101.77C67.3692 101.048 67.2499 100.233 67.2499 99.3223V98.5564C67.2499 97.6462 67.3665 96.8331 67.5996 96.1172C67.8382 95.3956 68.174 94.7824 68.6069 94.2773C69.0398 93.7667 69.5532 93.3782 70.147 93.1118C70.7464 92.8454 71.4041 92.7122 72.1201 92.7122C72.8582 92.7122 73.527 92.8454 74.1264 93.1118C74.7258 93.3782 75.2392 93.7667 75.6666 94.2773C76.0939 94.7824 76.4214 95.3956 76.6489 96.1172C76.882 96.8331 76.9986 97.6462 76.9986 98.5564ZM75.4085 99.3223V98.5397C75.4085 97.8182 75.3336 97.18 75.1837 96.625C75.0394 96.07 74.8257 95.6038 74.5427 95.2264C74.2596 94.849 73.9155 94.5631 73.5104 94.3689C73.1052 94.1746 72.6418 94.0775 72.1201 94.0775C71.6261 94.0775 71.1766 94.1746 70.7714 94.3689C70.3718 94.5631 70.0277 94.849 69.7391 95.2264C69.4505 95.6038 69.2285 96.07 69.0731 96.625C68.9177 97.18 68.84 97.8182 68.84 98.5397V99.3223C68.84 100.049 68.9177 100.693 69.0731 101.254C69.2285 101.809 69.4505 102.278 69.7391 102.661C70.0333 103.038 70.3829 103.324 70.7881 103.518C71.1932 103.712 71.6428 103.81 72.1367 103.81C72.6584 103.81 73.1219 103.712 73.527 103.518C73.9322 103.324 74.2735 103.038 74.551 102.661C74.834 102.278 75.0477 101.809 75.192 101.254C75.3363 100.693 75.4085 100.049 75.4085 99.3223ZM84.7575 102.919V95.9923H86.306V105H84.8325L84.7575 102.919ZM85.0489 101.021L85.6899 101.004C85.6899 101.603 85.6261 102.158 85.4985 102.669C85.3764 103.174 85.1766 103.612 84.8991 103.984C84.6216 104.356 84.258 104.648 83.8085 104.858C83.3589 105.064 82.8122 105.167 82.1684 105.167C81.73 105.167 81.3276 105.103 80.9613 104.975C80.6005 104.847 80.2897 104.65 80.0289 104.384C79.768 104.118 79.5655 103.771 79.4212 103.343C79.2824 102.916 79.213 102.403 79.213 101.803V95.9923H80.7532V101.82C80.7532 102.225 80.7976 102.561 80.8864 102.827C80.9807 103.088 81.1056 103.296 81.261 103.452C81.422 103.601 81.5996 103.707 81.7938 103.768C81.9936 103.829 82.199 103.859 82.4099 103.859C83.0648 103.859 83.5837 103.735 83.9667 103.485C84.3496 103.23 84.6243 102.888 84.7908 102.461C84.9629 102.028 85.0489 101.548 85.0489 101.021ZM93.9651 103.46V98.8228C93.9651 98.4676 93.8929 98.1596 93.7486 97.8987C93.6099 97.6323 93.399 97.427 93.1159 97.2827C92.8328 97.1384 92.4832 97.0662 92.0669 97.0662C91.6784 97.0662 91.3371 97.1328 91.043 97.266C90.7544 97.3992 90.5268 97.574 90.3603 97.7905C90.1994 98.0069 90.1189 98.24 90.1189 98.4898H88.5787C88.5787 98.1679 88.662 97.8488 88.8285 97.5324C88.995 97.2161 89.2336 96.9302 89.5444 96.6749C89.8608 96.4141 90.2382 96.2087 90.6767 96.0589C91.1207 95.9035 91.6146 95.8258 92.1585 95.8258C92.8134 95.8258 93.3906 95.9368 93.8901 96.1588C94.3952 96.3808 94.7892 96.7166 95.0723 97.1661C95.3609 97.6101 95.5052 98.1679 95.5052 98.8394V103.035C95.5052 103.335 95.5302 103.654 95.5801 103.993C95.6356 104.331 95.7161 104.623 95.8215 104.867V105H94.2148C94.1371 104.822 94.0761 104.587 94.0317 104.292C93.9873 103.993 93.9651 103.715 93.9651 103.46ZM94.2315 99.5388L94.2481 100.621H92.6913C92.2529 100.621 91.8616 100.657 91.5175 100.729C91.1734 100.796 90.8848 100.899 90.6517 101.037C90.4186 101.176 90.241 101.351 90.1189 101.562C89.9968 101.767 89.9357 102.009 89.9357 102.286C89.9357 102.569 89.9995 102.827 90.1272 103.06C90.2549 103.293 90.4463 103.479 90.7016 103.618C90.9625 103.751 91.2816 103.818 91.659 103.818C92.1308 103.818 92.547 103.718 92.9078 103.518C93.2685 103.318 93.5544 103.074 93.7653 102.786C93.9817 102.497 94.0983 102.217 94.1149 101.945L94.7726 102.686C94.7337 102.919 94.6283 103.177 94.4562 103.46C94.2842 103.743 94.0539 104.015 93.7653 104.276C93.4822 104.531 93.1436 104.745 92.7496 104.917C92.3611 105.083 91.9226 105.167 91.4342 105.167C90.8237 105.167 90.2882 105.047 89.8275 104.809C89.3724 104.57 89.0172 104.251 88.7619 103.851C88.5121 103.446 88.3873 102.994 88.3873 102.494C88.3873 102.011 88.4816 101.587 88.6703 101.22C88.859 100.849 89.131 100.541 89.4862 100.296C89.8414 100.047 90.2687 99.8579 90.7682 99.7302C91.2677 99.6026 91.8255 99.5388 92.4416 99.5388H94.2315ZM99.6011 92.2127V105H98.0527V92.2127H99.6011ZM103.747 95.9923V105H102.199V95.9923H103.747ZM102.082 93.603C102.082 93.3532 102.157 93.1423 102.307 92.9703C102.462 92.7982 102.69 92.7122 102.989 92.7122C103.284 92.7122 103.508 92.7982 103.664 92.9703C103.825 93.1423 103.905 93.3532 103.905 93.603C103.905 93.8416 103.825 94.047 103.664 94.219C103.508 94.3855 103.284 94.4688 102.989 94.4688C102.69 94.4688 102.462 94.3855 102.307 94.219C102.157 94.047 102.082 93.8416 102.082 93.603ZM109.991 95.9923V97.1744H105.121V95.9923H109.991ZM106.769 93.8028H108.309V102.769C108.309 103.074 108.356 103.304 108.451 103.46C108.545 103.615 108.667 103.718 108.817 103.768C108.967 103.818 109.128 103.843 109.3 103.843C109.427 103.843 109.561 103.832 109.699 103.81C109.844 103.782 109.952 103.76 110.024 103.743L110.032 105C109.91 105.039 109.749 105.075 109.55 105.108C109.355 105.147 109.119 105.167 108.842 105.167C108.465 105.167 108.118 105.092 107.801 104.942C107.485 104.792 107.232 104.542 107.044 104.192C106.861 103.837 106.769 103.36 106.769 102.761V93.8028ZM114.328 104.068L116.834 95.9923H118.482L114.869 106.39C114.786 106.612 114.675 106.851 114.536 107.106C114.403 107.367 114.231 107.614 114.02 107.847C113.809 108.08 113.554 108.269 113.254 108.413C112.96 108.563 112.608 108.638 112.197 108.638C112.075 108.638 111.919 108.621 111.731 108.588C111.542 108.555 111.409 108.527 111.331 108.505L111.323 107.256C111.367 107.262 111.437 107.267 111.531 107.273C111.631 107.284 111.7 107.289 111.739 107.289C112.089 107.289 112.386 107.242 112.63 107.148C112.874 107.059 113.079 106.906 113.246 106.69C113.418 106.479 113.565 106.188 113.687 105.816L114.328 104.068ZM112.488 95.9923L114.828 102.985L115.227 104.609L114.12 105.175L110.807 95.9923H112.488Z" fill="black"/>
<path d="M195.867 101.936C195.867 101.653 195.823 101.404 195.734 101.187C195.651 100.965 195.501 100.765 195.284 100.588C195.074 100.41 194.779 100.241 194.402 100.08C194.03 99.9189 193.558 99.7552 192.987 99.5887C192.387 99.4111 191.846 99.2141 191.363 98.9976C190.88 98.7756 190.467 98.5231 190.123 98.24C189.779 97.957 189.515 97.6323 189.332 97.266C189.149 96.8997 189.057 96.4807 189.057 96.0089C189.057 95.5372 189.154 95.1015 189.349 94.7019C189.543 94.3023 189.82 93.9554 190.181 93.6613C190.547 93.3616 190.983 93.1285 191.488 92.9619C191.993 92.7954 192.557 92.7122 193.178 92.7122C194.088 92.7122 194.86 92.887 195.493 93.2367C196.131 93.5808 196.616 94.0331 196.949 94.5937C197.282 95.1487 197.449 95.7425 197.449 96.3752H195.851C195.851 95.9201 195.753 95.5177 195.559 95.1681C195.365 94.8129 195.071 94.5354 194.677 94.3356C194.283 94.1302 193.783 94.0276 193.178 94.0276C192.607 94.0276 192.135 94.1136 191.763 94.2856C191.391 94.4577 191.114 94.6908 190.93 94.9849C190.753 95.2791 190.664 95.6149 190.664 95.9923C190.664 96.2476 190.717 96.4807 190.822 96.6916C190.933 96.8969 191.102 97.0884 191.33 97.266C191.563 97.4436 191.857 97.6073 192.212 97.7572C192.573 97.907 193.003 98.0513 193.503 98.1901C194.191 98.3843 194.785 98.6008 195.284 98.8394C195.784 99.0781 196.195 99.3473 196.517 99.647C196.844 99.9411 197.085 100.277 197.241 100.654C197.402 101.026 197.482 101.448 197.482 101.92C197.482 102.414 197.382 102.86 197.183 103.26C196.983 103.66 196.697 104.001 196.325 104.284C195.953 104.567 195.506 104.786 194.985 104.942C194.469 105.092 193.891 105.167 193.253 105.167C192.693 105.167 192.14 105.089 191.596 104.933C191.058 104.778 190.567 104.545 190.123 104.234C189.684 103.923 189.332 103.54 189.066 103.085C188.805 102.625 188.674 102.092 188.674 101.487H190.273C190.273 101.903 190.353 102.261 190.514 102.561C190.675 102.855 190.894 103.099 191.172 103.293C191.455 103.488 191.774 103.632 192.129 103.726C192.49 103.815 192.865 103.859 193.253 103.859C193.814 103.859 194.288 103.782 194.677 103.626C195.065 103.471 195.359 103.249 195.559 102.96C195.765 102.672 195.867 102.33 195.867 101.936ZM203.035 105.167C202.408 105.167 201.839 105.061 201.328 104.85C200.823 104.634 200.388 104.331 200.021 103.943C199.661 103.554 199.383 103.094 199.189 102.561C198.995 102.028 198.898 101.445 198.898 100.812V100.463C198.898 99.7302 199.006 99.0781 199.222 98.5064C199.439 97.9292 199.733 97.4408 200.105 97.0412C200.477 96.6416 200.898 96.3392 201.37 96.1338C201.842 95.9284 202.33 95.8258 202.835 95.8258C203.479 95.8258 204.034 95.9368 204.5 96.1588C204.972 96.3808 205.358 96.6916 205.657 97.0912C205.957 97.4852 206.179 97.9514 206.323 98.4898C206.468 99.0226 206.54 99.6054 206.54 100.238V100.929H199.813V99.672H205V99.5554C204.978 99.1558 204.894 98.7673 204.75 98.3899C204.611 98.0125 204.389 97.7017 204.084 97.4575C203.779 97.2133 203.363 97.0912 202.835 97.0912C202.486 97.0912 202.164 97.1661 201.87 97.316C201.575 97.4603 201.323 97.6767 201.112 97.9653C200.901 98.2539 200.737 98.6063 200.621 99.0226C200.504 99.4389 200.446 99.9189 200.446 100.463V100.812C200.446 101.24 200.504 101.642 200.621 102.02C200.743 102.391 200.918 102.719 201.145 103.002C201.378 103.285 201.659 103.507 201.986 103.668C202.319 103.829 202.697 103.909 203.118 103.909C203.662 103.909 204.123 103.798 204.5 103.576C204.878 103.354 205.208 103.057 205.491 102.686L206.423 103.427C206.229 103.721 205.982 104.001 205.682 104.267C205.383 104.534 205.014 104.75 204.575 104.917C204.142 105.083 203.629 105.167 203.035 105.167ZM211.943 103.901C212.309 103.901 212.648 103.826 212.959 103.676C213.269 103.526 213.525 103.321 213.724 103.06C213.924 102.794 214.038 102.491 214.066 102.153H215.531C215.503 102.686 215.323 103.182 214.99 103.643C214.662 104.098 214.232 104.467 213.699 104.75C213.167 105.028 212.581 105.167 211.943 105.167C211.266 105.167 210.675 105.047 210.17 104.809C209.67 104.57 209.254 104.242 208.921 103.826C208.593 103.41 208.346 102.933 208.18 102.394C208.019 101.85 207.939 101.276 207.939 100.671V100.321C207.939 99.7164 208.019 99.1447 208.18 98.6063C208.346 98.0624 208.593 97.5824 208.921 97.1661C209.254 96.7499 209.67 96.4224 210.17 96.1838C210.675 95.9451 211.266 95.8258 211.943 95.8258C212.648 95.8258 213.264 95.9701 213.791 96.2587C214.318 96.5417 214.732 96.9302 215.032 97.4242C215.337 97.9126 215.503 98.4676 215.531 99.0892H214.066C214.038 98.7173 213.933 98.3816 213.749 98.0819C213.572 97.7822 213.328 97.5435 213.017 97.3659C212.712 97.1828 212.354 97.0912 211.943 97.0912C211.471 97.0912 211.074 97.1855 210.752 97.3742C210.436 97.5574 210.184 97.8071 209.995 98.1235C209.812 98.4343 209.678 98.7812 209.595 99.1641C209.518 99.5415 209.479 99.9273 209.479 100.321V100.671C209.479 101.065 209.518 101.454 209.595 101.836C209.673 102.219 209.803 102.566 209.987 102.877C210.175 103.188 210.428 103.438 210.744 103.626C211.066 103.81 211.466 103.901 211.943 103.901ZM222.774 102.919V95.9923H224.322V105H222.849L222.774 102.919ZM223.065 101.021L223.706 101.004C223.706 101.603 223.642 102.158 223.515 102.669C223.393 103.174 223.193 103.612 222.915 103.984C222.638 104.356 222.274 104.648 221.825 104.858C221.375 105.064 220.829 105.167 220.185 105.167C219.746 105.167 219.344 105.103 218.978 104.975C218.617 104.847 218.306 104.65 218.045 104.384C217.784 104.118 217.582 103.771 217.437 103.343C217.299 102.916 217.229 102.403 217.229 101.803V95.9923H218.769V101.82C218.769 102.225 218.814 102.561 218.903 102.827C218.997 103.088 219.122 103.296 219.277 103.452C219.438 103.601 219.616 103.707 219.81 103.768C220.01 103.829 220.215 103.859 220.426 103.859C221.081 103.859 221.6 103.735 221.983 103.485C222.366 103.23 222.641 102.888 222.807 102.461C222.979 102.028 223.065 101.548 223.065 101.021ZM228.21 97.4075V105H226.67V95.9923H228.168L228.21 97.4075ZM231.024 95.9423L231.016 97.3742C230.888 97.3465 230.766 97.3298 230.649 97.3243C230.538 97.3132 230.411 97.3076 230.266 97.3076C229.911 97.3076 229.598 97.3631 229.326 97.4741C229.054 97.5851 228.823 97.7405 228.635 97.9403C228.446 98.1401 228.296 98.3788 228.185 98.6563C228.08 98.9282 228.01 99.228 227.977 99.5554L227.544 99.8052C227.544 99.2613 227.597 98.7506 227.702 98.2733C227.813 97.796 227.983 97.3742 228.21 97.0079C228.438 96.6361 228.726 96.3475 229.076 96.1421C229.431 95.9312 229.853 95.8258 230.341 95.8258C230.452 95.8258 230.58 95.8396 230.724 95.8674C230.869 95.8896 230.968 95.9146 231.024 95.9423ZM236.019 105.167C235.392 105.167 234.823 105.061 234.312 104.85C233.807 104.634 233.372 104.331 233.005 103.943C232.645 103.554 232.367 103.094 232.173 102.561C231.979 102.028 231.881 101.445 231.881 100.812V100.463C231.881 99.7302 231.99 99.0781 232.206 98.5064C232.423 97.9292 232.717 97.4408 233.089 97.0412C233.46 96.6416 233.882 96.3392 234.354 96.1338C234.826 95.9284 235.314 95.8258 235.819 95.8258C236.463 95.8258 237.018 95.9368 237.484 96.1588C237.956 96.3808 238.342 96.6916 238.641 97.0912C238.941 97.4852 239.163 97.9514 239.307 98.4898C239.452 99.0226 239.524 99.6054 239.524 100.238V100.929H232.797V99.672H237.984V99.5554C237.962 99.1558 237.878 98.7673 237.734 98.3899C237.595 98.0125 237.373 97.7017 237.068 97.4575C236.763 97.2133 236.346 97.0912 235.819 97.0912C235.47 97.0912 235.148 97.1661 234.853 97.316C234.559 97.4603 234.307 97.6767 234.096 97.9653C233.885 98.2539 233.721 98.6063 233.605 99.0226C233.488 99.4389 233.43 99.9189 233.43 100.463V100.812C233.43 101.24 233.488 101.642 233.605 102.02C233.727 102.391 233.902 102.719 234.129 103.002C234.362 103.285 234.643 103.507 234.97 103.668C235.303 103.829 235.68 103.909 236.102 103.909C236.646 103.909 237.107 103.798 237.484 103.576C237.862 103.354 238.192 103.057 238.475 102.686L239.407 103.427C239.213 103.721 238.966 104.001 238.666 104.267C238.367 104.534 237.998 104.75 237.559 104.917C237.126 105.083 236.613 105.167 236.019 105.167ZM250.255 100.246H247.016V98.9393H250.255C250.882 98.9393 251.39 98.8394 251.778 98.6396C252.167 98.4398 252.45 98.1623 252.628 97.8071C252.811 97.4519 252.902 97.0468 252.902 96.5917C252.902 96.1754 252.811 95.7841 252.628 95.4178C252.45 95.0515 252.167 94.7574 251.778 94.5354C251.39 94.3078 250.882 94.1941 250.255 94.1941H247.391V105H245.784V92.8787H250.255C251.171 92.8787 251.945 93.0369 252.578 93.3532C253.21 93.6696 253.69 94.108 254.018 94.6686C254.345 95.2236 254.509 95.8591 254.509 96.575C254.509 97.352 254.345 98.0153 254.018 98.5647C253.69 99.1142 253.21 99.5332 252.578 99.8218C251.945 100.105 251.171 100.246 250.255 100.246ZM261.519 103.46V98.8228C261.519 98.4676 261.447 98.1596 261.302 97.8987C261.163 97.6323 260.953 97.427 260.67 97.2827C260.386 97.1384 260.037 97.0662 259.621 97.0662C259.232 97.0662 258.891 97.1328 258.597 97.266C258.308 97.3992 258.08 97.574 257.914 97.7905C257.753 98.0069 257.673 98.24 257.673 98.4898H256.132C256.132 98.1679 256.216 97.8488 256.382 97.5324C256.549 97.2161 256.787 96.9302 257.098 96.6749C257.414 96.4141 257.792 96.2087 258.23 96.0589C258.674 95.9035 259.168 95.8258 259.712 95.8258C260.367 95.8258 260.944 95.9368 261.444 96.1588C261.949 96.3808 262.343 96.7166 262.626 97.1661C262.915 97.6101 263.059 98.1679 263.059 98.8394V103.035C263.059 103.335 263.084 103.654 263.134 103.993C263.189 104.331 263.27 104.623 263.375 104.867V105H261.768C261.691 104.822 261.63 104.587 261.585 104.292C261.541 103.993 261.519 103.715 261.519 103.46ZM261.785 99.5388L261.802 100.621H260.245C259.806 100.621 259.415 100.657 259.071 100.729C258.727 100.796 258.438 100.899 258.205 101.037C257.972 101.176 257.795 101.351 257.673 101.562C257.55 101.767 257.489 102.009 257.489 102.286C257.489 102.569 257.553 102.827 257.681 103.06C257.808 103.293 258 103.479 258.255 103.618C258.516 103.751 258.835 103.818 259.213 103.818C259.684 103.818 260.101 103.718 260.461 103.518C260.822 103.318 261.108 103.074 261.319 102.786C261.535 102.497 261.652 102.217 261.669 101.945L262.326 102.686C262.287 102.919 262.182 103.177 262.01 103.46C261.838 103.743 261.607 104.015 261.319 104.276C261.036 104.531 260.697 104.745 260.303 104.917C259.915 105.083 259.476 105.167 258.988 105.167C258.377 105.167 257.842 105.047 257.381 104.809C256.926 104.57 256.571 104.251 256.316 103.851C256.066 103.446 255.941 102.994 255.941 102.494C255.941 102.011 256.035 101.587 256.224 101.22C256.413 100.849 256.685 100.541 257.04 100.296C257.395 100.047 257.822 99.8579 258.322 99.7302C258.821 99.6026 259.379 99.5388 259.995 99.5388H261.785ZM267.879 104.068L270.385 95.9923H272.033L268.42 106.39C268.337 106.612 268.226 106.851 268.087 107.106C267.954 107.367 267.782 107.614 267.571 107.847C267.36 108.08 267.105 108.269 266.805 108.413C266.511 108.563 266.159 108.638 265.748 108.638C265.626 108.638 265.47 108.621 265.282 108.588C265.093 108.555 264.96 108.527 264.882 108.505L264.874 107.256C264.918 107.262 264.987 107.267 265.082 107.273C265.182 107.284 265.251 107.289 265.29 107.289C265.64 107.289 265.937 107.242 266.181 107.148C266.425 107.059 266.63 106.906 266.797 106.69C266.969 106.479 267.116 106.188 267.238 105.816L267.879 104.068ZM266.039 95.9923L268.379 102.985L268.778 104.609L267.671 105.175L264.358 95.9923H266.039ZM274.955 97.7822V105H273.407V95.9923H274.872L274.955 97.7822ZM274.639 100.155L273.923 100.13C273.929 99.5138 274.009 98.9449 274.164 98.4232C274.32 97.8959 274.55 97.4381 274.855 97.0496C275.161 96.6611 275.541 96.3614 275.996 96.1505C276.451 95.934 276.978 95.8258 277.578 95.8258C278 95.8258 278.388 95.8868 278.743 96.0089C279.098 96.1255 279.406 96.3114 279.667 96.5667C279.928 96.822 280.131 97.1495 280.275 97.5491C280.419 97.9487 280.492 98.4315 280.492 98.9976V105H278.951V99.0726C278.951 98.6008 278.871 98.2234 278.71 97.9403C278.555 97.6573 278.333 97.4519 278.044 97.3243C277.755 97.1911 277.417 97.1245 277.028 97.1245C276.573 97.1245 276.193 97.205 275.888 97.3659C275.583 97.5269 275.338 97.7489 275.155 98.0319C274.972 98.315 274.839 98.6396 274.756 99.006C274.678 99.3667 274.639 99.7497 274.639 100.155ZM280.475 99.3057L279.443 99.622C279.448 99.1281 279.529 98.6535 279.684 98.1984C279.845 97.7433 280.075 97.3382 280.375 96.983C280.68 96.6278 281.055 96.3475 281.499 96.1421C281.943 95.9312 282.451 95.8258 283.022 95.8258C283.505 95.8258 283.933 95.8896 284.304 96.0173C284.682 96.1449 284.998 96.3419 285.253 96.6083C285.514 96.8692 285.711 97.205 285.845 97.6157C285.978 98.0264 286.044 98.5148 286.044 99.0809V105H284.496V99.0642C284.496 98.5592 284.415 98.1679 284.254 97.8904C284.099 97.6073 283.877 97.4103 283.588 97.2993C283.305 97.1828 282.967 97.1245 282.573 97.1245C282.234 97.1245 281.935 97.1828 281.674 97.2993C281.413 97.4159 281.194 97.5768 281.016 97.7822C280.838 97.982 280.702 98.2123 280.608 98.4731C280.519 98.734 280.475 99.0115 280.475 99.3057ZM292.113 105.167C291.486 105.167 290.917 105.061 290.407 104.85C289.902 104.634 289.466 104.331 289.1 103.943C288.739 103.554 288.461 103.094 288.267 102.561C288.073 102.028 287.976 101.445 287.976 100.812V100.463C287.976 99.7302 288.084 99.0781 288.3 98.5064C288.517 97.9292 288.811 97.4408 289.183 97.0412C289.555 96.6416 289.977 96.3392 290.448 96.1338C290.92 95.9284 291.408 95.8258 291.914 95.8258C292.557 95.8258 293.112 95.9368 293.579 96.1588C294.05 96.3808 294.436 96.6916 294.736 97.0912C295.035 97.4852 295.257 97.9514 295.402 98.4898C295.546 99.0226 295.618 99.6054 295.618 100.238V100.929H288.892V99.672H294.078V99.5554C294.056 99.1558 293.973 98.7673 293.828 98.3899C293.69 98.0125 293.468 97.7017 293.162 97.4575C292.857 97.2133 292.441 97.0912 291.914 97.0912C291.564 97.0912 291.242 97.1661 290.948 97.316C290.654 97.4603 290.401 97.6767 290.19 97.9653C289.979 98.2539 289.816 98.6063 289.699 99.0226C289.582 99.4389 289.524 99.9189 289.524 100.463V100.812C289.524 101.24 289.582 101.642 289.699 102.02C289.821 102.391 289.996 102.719 290.224 103.002C290.457 103.285 290.737 103.507 291.064 103.668C291.397 103.829 291.775 103.909 292.197 103.909C292.74 103.909 293.201 103.798 293.579 103.576C293.956 103.354 294.286 103.057 294.569 102.686L295.502 103.427C295.307 103.721 295.06 104.001 294.761 104.267C294.461 104.534 294.092 104.75 293.653 104.917C293.221 105.083 292.707 105.167 292.113 105.167ZM298.957 97.9154V105H297.416V95.9923H298.873L298.957 97.9154ZM298.59 100.155L297.949 100.13C297.955 99.5138 298.046 98.9449 298.224 98.4232C298.402 97.8959 298.651 97.4381 298.973 97.0496C299.295 96.6611 299.678 96.3614 300.122 96.1505C300.572 95.934 301.068 95.8258 301.612 95.8258C302.056 95.8258 302.456 95.8868 302.811 96.0089C303.166 96.1255 303.469 96.3142 303.718 96.575C303.974 96.8359 304.168 97.1744 304.301 97.5907C304.434 98.0014 304.501 98.5037 304.501 99.0975V105H302.953V99.0809C302.953 98.6091 302.883 98.2317 302.744 97.9487C302.606 97.6601 302.403 97.4519 302.137 97.3243C301.87 97.1911 301.543 97.1245 301.154 97.1245C300.771 97.1245 300.422 97.205 300.105 97.3659C299.795 97.5269 299.525 97.7489 299.298 98.0319C299.076 98.315 298.901 98.6396 298.773 99.006C298.651 99.3667 298.59 99.7497 298.59 100.155ZM310.612 95.9923V97.1744H305.741V95.9923H310.612ZM307.39 93.8028H308.93V102.769C308.93 103.074 308.977 103.304 309.071 103.46C309.166 103.615 309.288 103.718 309.438 103.768C309.588 103.818 309.749 103.843 309.921 103.843C310.048 103.843 310.181 103.832 310.32 103.81C310.465 103.782 310.573 103.76 310.645 103.743L310.653 105C310.531 105.039 310.37 105.075 310.17 105.108C309.976 105.147 309.74 105.167 309.463 105.167C309.085 105.167 308.738 105.092 308.422 104.942C308.106 104.792 307.853 104.542 307.665 104.192C307.481 103.837 307.39 103.36 307.39 102.761V93.8028Z" fill="black"/>
<path d="M396.108 103.693V105H389.689V103.693H396.108ZM390.014 92.8787V105H388.407V92.8787H390.014ZM395.258 98.0902V99.3972H389.689V98.0902H395.258ZM396.024 92.8787V94.1941H389.689V92.8787H396.024ZM403.176 103.46V98.8228C403.176 98.4676 403.103 98.1596 402.959 97.8987C402.82 97.6323 402.61 97.427 402.326 97.2827C402.043 97.1384 401.694 97.0662 401.277 97.0662C400.889 97.0662 400.548 97.1328 400.254 97.266C399.965 97.3992 399.737 97.574 399.571 97.7905C399.41 98.0069 399.329 98.24 399.329 98.4898H397.789C397.789 98.1679 397.873 97.8488 398.039 97.5324C398.206 97.2161 398.444 96.9302 398.755 96.6749C399.071 96.4141 399.449 96.2087 399.887 96.0589C400.331 95.9035 400.825 95.8258 401.369 95.8258C402.024 95.8258 402.601 95.9368 403.101 96.1588C403.606 96.3808 404 96.7166 404.283 97.1661C404.571 97.6101 404.716 98.1679 404.716 98.8394V103.035C404.716 103.335 404.741 103.654 404.791 103.993C404.846 104.331 404.927 104.623 405.032 104.867V105H403.425C403.348 104.822 403.287 104.587 403.242 104.292C403.198 103.993 403.176 103.715 403.176 103.46ZM403.442 99.5388L403.459 100.621H401.902C401.463 100.621 401.072 100.657 400.728 100.729C400.384 100.796 400.095 100.899 399.862 101.037C399.629 101.176 399.452 101.351 399.329 101.562C399.207 101.767 399.146 102.009 399.146 102.286C399.146 102.569 399.21 102.827 399.338 103.06C399.465 103.293 399.657 103.479 399.912 103.618C400.173 103.751 400.492 103.818 400.87 103.818C401.341 103.818 401.758 103.718 402.118 103.518C402.479 103.318 402.765 103.074 402.976 102.786C403.192 102.497 403.309 102.217 403.325 101.945L403.983 102.686C403.944 102.919 403.839 103.177 403.667 103.46C403.495 103.743 403.264 104.015 402.976 104.276C402.693 104.531 402.354 104.745 401.96 104.917C401.572 105.083 401.133 105.167 400.645 105.167C400.034 105.167 399.499 105.047 399.038 104.809C398.583 104.57 398.228 104.251 397.972 103.851C397.723 103.446 397.598 102.994 397.598 102.494C397.598 102.011 397.692 101.587 397.881 101.22C398.07 100.849 398.342 100.541 398.697 100.296C399.052 100.047 399.479 99.8579 399.979 99.7302C400.478 99.6026 401.036 99.5388 401.652 99.5388H403.442ZM412.383 102.611C412.383 102.389 412.333 102.183 412.233 101.995C412.139 101.8 411.942 101.626 411.642 101.47C411.348 101.309 410.904 101.17 410.31 101.054C409.811 100.948 409.358 100.824 408.953 100.679C408.554 100.535 408.212 100.36 407.929 100.155C407.652 99.9495 407.438 99.708 407.288 99.4305C407.138 99.153 407.063 98.8283 407.063 98.4565C407.063 98.1013 407.141 97.7655 407.297 97.4492C407.457 97.1328 407.682 96.8525 407.971 96.6083C408.265 96.3641 408.617 96.1727 409.028 96.0339C409.439 95.8951 409.897 95.8258 410.402 95.8258C411.123 95.8258 411.739 95.9534 412.25 96.2087C412.761 96.464 413.152 96.8054 413.424 97.2327C413.696 97.6545 413.832 98.1235 413.832 98.6396H412.292C412.292 98.3899 412.217 98.1485 412.067 97.9154C411.922 97.6767 411.709 97.4797 411.426 97.3243C411.148 97.1689 410.807 97.0912 410.402 97.0912C409.974 97.0912 409.628 97.1578 409.361 97.291C409.1 97.4186 408.909 97.5824 408.787 97.7822C408.67 97.982 408.612 98.1929 408.612 98.4149C408.612 98.5814 408.64 98.7312 408.695 98.8644C408.756 98.9921 408.862 99.1114 409.011 99.2224C409.161 99.3279 409.372 99.4278 409.644 99.5221C409.916 99.6165 410.263 99.7108 410.685 99.8052C411.423 99.9717 412.031 100.171 412.508 100.405C412.985 100.638 413.341 100.923 413.574 101.262C413.807 101.601 413.923 102.011 413.923 102.494C413.923 102.888 413.84 103.249 413.674 103.576C413.513 103.904 413.277 104.187 412.966 104.426C412.661 104.659 412.294 104.842 411.867 104.975C411.445 105.103 410.971 105.167 410.443 105.167C409.65 105.167 408.978 105.025 408.429 104.742C407.879 104.459 407.463 104.093 407.18 103.643C406.897 103.193 406.755 102.719 406.755 102.219H408.304C408.326 102.641 408.448 102.977 408.67 103.227C408.892 103.471 409.164 103.646 409.486 103.751C409.808 103.851 410.127 103.901 410.443 103.901C410.865 103.901 411.218 103.846 411.501 103.735C411.789 103.624 412.009 103.471 412.158 103.277C412.308 103.082 412.383 102.86 412.383 102.611ZM418.477 104.068L420.983 95.9923H422.631L419.018 106.39C418.935 106.612 418.824 106.851 418.685 107.106C418.552 107.367 418.38 107.614 418.169 107.847C417.958 108.08 417.703 108.269 417.403 108.413C417.109 108.563 416.757 108.638 416.346 108.638C416.224 108.638 416.068 108.621 415.88 108.588C415.691 108.555 415.558 108.527 415.48 108.505L415.472 107.256C415.516 107.262 415.586 107.267 415.68 107.273C415.78 107.284 415.849 107.289 415.888 107.289C416.238 107.289 416.535 107.242 416.779 107.148C417.023 107.059 417.228 106.906 417.395 106.69C417.567 106.479 417.714 106.188 417.836 105.816L418.477 104.068ZM416.637 95.9923L418.977 102.985L419.376 104.609L418.269 105.175L414.956 95.9923H416.637ZM429.791 97.4075V105H428.251V95.9923H429.749L429.791 97.4075ZM432.605 95.9423L432.596 97.3742C432.469 97.3465 432.347 97.3298 432.23 97.3243C432.119 97.3132 431.991 97.3076 431.847 97.3076C431.492 97.3076 431.178 97.3631 430.906 97.4741C430.634 97.5851 430.404 97.7405 430.215 97.9403C430.027 98.1401 429.877 98.3788 429.766 98.6563C429.66 98.9282 429.591 99.228 429.558 99.5554L429.125 99.8052C429.125 99.2613 429.178 98.7506 429.283 98.2733C429.394 97.796 429.563 97.3742 429.791 97.0079C430.018 96.6361 430.307 96.3475 430.657 96.1421C431.012 95.9312 431.434 95.8258 431.922 95.8258C432.033 95.8258 432.161 95.8396 432.305 95.8674C432.449 95.8896 432.549 95.9146 432.605 95.9423ZM437.6 105.167C436.973 105.167 436.404 105.061 435.893 104.85C435.388 104.634 434.952 104.331 434.586 103.943C434.225 103.554 433.948 103.094 433.754 102.561C433.559 102.028 433.462 101.445 433.462 100.812V100.463C433.462 99.7302 433.57 99.0781 433.787 98.5064C434.003 97.9292 434.297 97.4408 434.669 97.0412C435.041 96.6416 435.463 96.3392 435.935 96.1338C436.407 95.9284 436.895 95.8258 437.4 95.8258C438.044 95.8258 438.599 95.9368 439.065 96.1588C439.537 96.3808 439.922 96.6916 440.222 97.0912C440.522 97.4852 440.744 97.9514 440.888 98.4898C441.032 99.0226 441.105 99.6054 441.105 100.238V100.929H434.378V99.672H439.564V99.5554C439.542 99.1558 439.459 98.7673 439.315 98.3899C439.176 98.0125 438.954 97.7017 438.649 97.4575C438.343 97.2133 437.927 97.0912 437.4 97.0912C437.05 97.0912 436.728 97.1661 436.434 97.316C436.14 97.4603 435.888 97.6767 435.677 97.9653C435.466 98.2539 435.302 98.6063 435.186 99.0226C435.069 99.4389 435.011 99.9189 435.011 100.463V100.812C435.011 101.24 435.069 101.642 435.186 102.02C435.308 102.391 435.482 102.719 435.71 103.002C435.943 103.285 436.223 103.507 436.551 103.668C436.884 103.829 437.261 103.909 437.683 103.909C438.227 103.909 438.688 103.798 439.065 103.576C439.442 103.354 439.773 103.057 440.056 102.686L440.988 103.427C440.794 103.721 440.547 104.001 440.247 104.267C439.947 104.534 439.578 104.75 439.14 104.917C438.707 105.083 438.194 105.167 437.6 105.167ZM446.674 95.9923V97.1744H441.804V95.9923H446.674ZM443.452 93.8028H444.992V102.769C444.992 103.074 445.04 103.304 445.134 103.46C445.228 103.615 445.35 103.718 445.5 103.768C445.65 103.818 445.811 103.843 445.983 103.843C446.111 103.843 446.244 103.832 446.383 103.81C446.527 103.782 446.635 103.76 446.707 103.743L446.716 105C446.594 105.039 446.433 105.075 446.233 105.108C446.039 105.147 445.803 105.167 445.525 105.167C445.148 105.167 444.801 105.092 444.485 104.942C444.168 104.792 443.916 104.542 443.727 104.192C443.544 103.837 443.452 103.36 443.452 102.761V93.8028ZM453.992 102.919V95.9923H455.54V105H454.067L453.992 102.919ZM454.283 101.021L454.924 101.004C454.924 101.603 454.86 102.158 454.733 102.669C454.611 103.174 454.411 103.612 454.133 103.984C453.856 104.356 453.492 104.648 453.043 104.858C452.593 105.064 452.047 105.167 451.403 105.167C450.964 105.167 450.562 105.103 450.196 104.975C449.835 104.847 449.524 104.65 449.263 104.384C449.002 104.118 448.8 103.771 448.655 103.343C448.517 102.916 448.447 102.403 448.447 101.803V95.9923H449.987V101.82C449.987 102.225 450.032 102.561 450.121 102.827C450.215 103.088 450.34 103.296 450.495 103.452C450.656 103.601 450.834 103.707 451.028 103.768C451.228 103.829 451.433 103.859 451.644 103.859C452.299 103.859 452.818 103.735 453.201 103.485C453.584 103.23 453.859 102.888 454.025 102.461C454.197 102.028 454.283 101.548 454.283 101.021ZM459.428 97.4075V105H457.888V95.9923H459.386L459.428 97.4075ZM462.242 95.9423L462.234 97.3742C462.106 97.3465 461.984 97.3298 461.867 97.3243C461.756 97.3132 461.629 97.3076 461.484 97.3076C461.129 97.3076 460.816 97.3631 460.544 97.4741C460.272 97.5851 460.041 97.7405 459.853 97.9403C459.664 98.1401 459.514 98.3788 459.403 98.6563C459.298 98.9282 459.228 99.228 459.195 99.5554L458.762 99.8052C458.762 99.2613 458.815 98.7506 458.92 98.2733C459.031 97.796 459.201 97.3742 459.428 97.0079C459.656 96.6361 459.944 96.3475 460.294 96.1421C460.649 95.9312 461.071 95.8258 461.559 95.8258C461.67 95.8258 461.798 95.8396 461.942 95.8674C462.087 95.8896 462.186 95.9146 462.242 95.9423ZM465.206 97.9154V105H463.666V95.9923H465.122L465.206 97.9154ZM464.839 100.155L464.198 100.13C464.204 99.5138 464.295 98.9449 464.473 98.4232C464.651 97.8959 464.9 97.4381 465.222 97.0496C465.544 96.6611 465.927 96.3614 466.371 96.1505C466.821 95.934 467.317 95.8258 467.861 95.8258C468.305 95.8258 468.705 95.8868 469.06 96.0089C469.415 96.1255 469.718 96.3142 469.968 96.575C470.223 96.8359 470.417 97.1744 470.55 97.5907C470.684 98.0014 470.75 98.5037 470.75 99.0975V105H469.202V99.0809C469.202 98.6091 469.132 98.2317 468.994 97.9487C468.855 97.6601 468.652 97.4519 468.386 97.3243C468.119 97.1911 467.792 97.1245 467.404 97.1245C467.021 97.1245 466.671 97.205 466.355 97.3659C466.044 97.5269 465.775 97.7489 465.547 98.0319C465.325 98.315 465.15 98.6396 465.023 99.006C464.9 99.3667 464.839 99.7497 464.839 100.155ZM478.334 102.611C478.334 102.389 478.284 102.183 478.184 101.995C478.09 101.8 477.893 101.626 477.593 101.47C477.299 101.309 476.855 101.17 476.261 101.054C475.762 100.948 475.31 100.824 474.904 100.679C474.505 100.535 474.163 100.36 473.88 100.155C473.603 99.9495 473.389 99.708 473.239 99.4305C473.09 99.153 473.015 98.8283 473.015 98.4565C473.015 98.1013 473.092 97.7655 473.248 97.4492C473.409 97.1328 473.633 96.8525 473.922 96.6083C474.216 96.3641 474.569 96.1727 474.979 96.0339C475.39 95.8951 475.848 95.8258 476.353 95.8258C477.074 95.8258 477.691 95.9534 478.201 96.2087C478.712 96.464 479.103 96.8054 479.375 97.2327C479.647 97.6545 479.783 98.1235 479.783 98.6396H478.243C478.243 98.3899 478.168 98.1485 478.018 97.9154C477.874 97.6767 477.66 97.4797 477.377 97.3243C477.099 97.1689 476.758 97.0912 476.353 97.0912C475.926 97.0912 475.579 97.1578 475.312 97.291C475.051 97.4186 474.86 97.5824 474.738 97.7822C474.621 97.982 474.563 98.1929 474.563 98.4149C474.563 98.5814 474.591 98.7312 474.646 98.8644C474.707 98.9921 474.813 99.1114 474.963 99.2224C475.113 99.3279 475.323 99.4278 475.595 99.5221C475.867 99.6165 476.214 99.7108 476.636 99.8052C477.374 99.9717 477.982 100.171 478.459 100.405C478.937 100.638 479.292 100.923 479.525 101.262C479.758 101.601 479.874 102.011 479.874 102.494C479.874 102.888 479.791 103.249 479.625 103.576C479.464 103.904 479.228 104.187 478.917 104.426C478.612 104.659 478.246 104.842 477.818 104.975C477.396 105.103 476.922 105.167 476.395 105.167C475.601 105.167 474.929 105.025 474.38 104.742C473.83 104.459 473.414 104.093 473.131 103.643C472.848 103.193 472.707 102.719 472.707 102.219H474.255C474.277 102.641 474.399 102.977 474.621 103.227C474.843 103.471 475.115 103.646 475.437 103.751C475.759 103.851 476.078 103.901 476.395 103.901C476.816 103.901 477.169 103.846 477.452 103.735C477.74 103.624 477.96 103.471 478.11 103.277C478.259 103.082 478.334 102.86 478.334 102.611Z" fill="black"/>
<path d="M54.7011 16.536L53.5911 22.98C53.5327 23.2825 53.5615 23.5954 53.6741 23.8822C53.7867 24.169 53.9785 24.4179 54.2271 24.6C54.4716 24.783 54.7624 24.8941 55.0667 24.9206C55.371 24.9471 55.6766 24.888 55.9491 24.75L61.9491 21.75L67.6371 24.714C67.9086 24.8604 68.2159 24.9274 68.5237 24.9074C68.8315 24.8875 69.1275 24.7813 69.3779 24.601C69.6282 24.4208 69.8228 24.1738 69.9394 23.8882C70.0559 23.6025 70.0898 23.2899 70.0371 22.986L68.9271 16.566L73.5951 12C73.8145 11.7868 73.9699 11.5165 74.0436 11.2196C74.1173 10.9227 74.1064 10.6111 74.0121 10.3201C73.9178 10.029 73.7439 9.77025 73.51 9.573C73.2762 9.37574 72.9918 9.2479 72.6891 9.20397L66.1791 8.25597L63.2751 2.39997C63.1375 2.12724 62.9263 1.89843 62.6655 1.73939C62.4047 1.58035 62.1046 1.49742 61.7991 1.49997C61.4946 1.49854 61.1958 1.582 60.9361 1.74098C60.6765 1.89995 60.4663 2.12815 60.3291 2.39997L57.4191 8.25597L50.9091 9.19197C50.6034 9.23324 50.3155 9.36 50.0787 9.55766C49.8418 9.75533 49.6656 10.0159 49.5703 10.3093C49.4751 10.6027 49.4645 10.917 49.54 11.2161C49.6155 11.5152 49.774 11.7869 49.9971 12L54.7011 16.536ZM58.1391 9.97197C58.2803 9.94837 58.4139 9.89142 58.5286 9.80585C58.6434 9.72028 58.7361 9.60856 58.7991 9.47997L61.7991 3.47997L64.7991 9.47997C64.8637 9.6108 64.9592 9.72395 65.0774 9.80966C65.1955 9.89537 65.3327 9.95107 65.4771 9.97197L72.1251 10.932L67.3251 15.576C67.2195 15.6775 67.1402 15.8032 67.0942 15.9423C67.0482 16.0813 67.0368 16.2295 67.0611 16.374L68.1951 22.944L62.3811 19.914C62.2539 19.8487 62.113 19.8146 61.9701 19.8146C61.8272 19.8146 61.6863 19.8487 61.5591 19.914L55.4391 22.986L56.5791 16.386C56.5991 16.2419 56.5839 16.0952 56.5348 15.9583C56.4857 15.8214 56.4041 15.6984 56.2971 15.6L51.4971 10.956L58.1391 9.97197Z" fill="#B4162E"/>
<path d="M87.0008 28.2003C86.6994 27.8521 86.3323 27.5669 85.9204 27.361C85.5086 27.1551 85.0601 27.0325 84.6008 27.0003C84.1415 26.9687 83.6806 27.03 83.2456 27.1805C82.8106 27.331 82.4103 27.5676 82.0688 27.8763L73.7588 35.3403C73.7371 35.1744 73.7051 35.0101 73.6628 34.8483C73.5231 34.3284 73.2729 33.8448 72.9291 33.4306C72.5853 33.0163 72.156 32.6813 71.6708 32.4483C70.1288 31.8003 67.9868 32.1003 65.9168 32.4003C64.7061 32.6373 63.4695 32.714 62.2388 32.6283C61.6911 32.4908 61.1614 32.2894 60.6608 32.0283C59.0888 31.3263 56.9348 30.3663 52.9268 31.2483C50.8575 31.7827 48.9567 32.8311 47.4008 34.2963V32.1003C47.4008 31.8616 47.306 31.6326 47.1372 31.4639C46.9684 31.2951 46.7395 31.2003 46.5008 31.2003H38.7008C38.4621 31.2003 38.2332 31.2951 38.0644 31.4639C37.8956 31.6326 37.8008 31.8616 37.8008 32.1003V49.5003C37.8008 49.739 37.8956 49.9679 38.0644 50.1367C38.2332 50.3054 38.4621 50.4003 38.7008 50.4003H46.5008C46.7395 50.4003 46.9684 50.3054 47.1372 50.1367C47.306 49.9679 47.4008 49.739 47.4008 49.5003V48.2523C48.6008 48.5343 54.0488 49.8003 58.0748 49.8003C62.2748 49.8003 67.4108 48.8403 70.5728 47.4663C76.3988 44.9403 85.9928 34.0383 86.7728 33.1563C87.4486 32.5225 87.8505 31.6501 87.8931 30.7246C87.9356 29.799 87.6155 28.8934 87.0008 28.2003ZM45.6008 48.6003H39.6008V33.0003H45.6008V48.6003ZM85.5248 31.8543L85.4408 31.9383C85.3388 32.0523 75.4268 43.4043 69.8408 45.8223C66.9008 47.1003 62.0528 48.0003 58.0748 48.0003C53.8748 48.0003 47.6768 46.4643 47.6168 46.4523C47.545 46.4435 47.4725 46.4435 47.4008 46.4523V36.8523C48.0548 36.1023 50.3648 33.6663 53.3168 33.0183C56.7488 32.2683 58.4408 33.0183 59.9168 33.6843C60.5536 33.9979 61.2267 34.2317 61.9208 34.3803C63.3378 34.5139 64.7667 34.4412 66.1628 34.1643C67.9088 33.9243 69.8888 33.6483 70.9628 34.0983C71.1937 34.231 71.3956 34.4088 71.5564 34.6211C71.7172 34.8335 71.8336 35.076 71.8988 35.3343C71.9859 35.6884 71.9873 36.0583 71.9028 36.4131C71.8182 36.7679 71.6503 37.0974 71.4128 37.3743C70.0448 39.2103 61.7228 41.9583 58.3088 41.6883C58.0701 41.67 57.8339 41.7472 57.6522 41.9031C57.4705 42.0589 57.3581 42.2806 57.3398 42.5193C57.3215 42.758 57.3988 42.9941 57.5546 43.1759C57.7104 43.3576 57.9321 43.47 58.1708 43.4883C58.3568 43.4883 58.5608 43.4883 58.7708 43.4883C62.4968 43.4883 69.6128 41.2923 72.2168 39.0963L72.2828 39.0603L83.2268 29.2203C83.5556 28.9273 83.987 28.7763 84.4268 28.8003C84.6569 28.8142 84.8819 28.8745 85.0881 28.9777C85.2943 29.0808 85.4775 29.2245 85.6268 29.4003C85.9349 29.741 86.0969 30.1891 86.0778 30.6481C86.0587 31.1071 85.8601 31.5403 85.5248 31.8543Z" fill="#B4162E"/>
<path d="M272.81 16.49H256.65V6.71C256.65 5.96015 256.502 5.21765 256.215 4.52488C255.928 3.83211 255.508 3.20264 254.978 2.67242C254.447 2.1422 253.818 1.7216 253.125 1.43465C252.432 1.14769 251.69 1 250.94 1H228.71C227.196 1 225.743 1.60159 224.672 2.67242C223.602 3.74325 223 5.19561 223 6.71V53.29C223 54.8044 223.602 56.2567 224.672 57.3276C225.743 58.3984 227.196 59 228.71 59H250.94C252.454 59 253.907 58.3984 254.978 57.3276C256.048 56.2567 256.65 54.8044 256.65 53.29V43.51H272.81C274.354 43.5074 275.835 42.892 276.926 41.7989C278.017 40.7058 278.63 39.2245 278.63 37.68V22.32C278.63 20.7755 278.017 19.2941 276.926 18.2011C275.835 17.108 274.354 16.4926 272.81 16.49ZM239.42 26.49H276.62V29H239.41L239.42 26.49ZM276.63 22.36V24.49H239.41V22.32C239.41 21.306 239.812 20.3333 240.528 19.6153C241.244 18.8973 242.216 18.4926 243.23 18.49H272.81C273.822 18.4953 274.791 18.9011 275.505 19.6188C276.219 20.3365 276.62 21.3077 276.62 22.32L276.63 22.36ZM228.71 3H250.94C251.924 3 252.868 3.39087 253.563 4.08663C254.259 4.78239 254.65 5.72605 254.65 6.71V9H225V6.71C225 5.72605 225.391 4.78239 226.087 4.08663C226.782 3.39087 227.726 3 228.71 3ZM250.94 57H228.71C227.726 57 226.782 56.6091 226.087 55.9134C225.391 55.2176 225 54.274 225 53.29V52.48H254.65V53.29C254.65 54.274 254.259 55.2176 253.563 55.9134C252.868 56.6091 251.924 57 250.94 57ZM254.65 50.48H225V11H254.65V16.49H243.23C241.686 16.4926 240.205 17.108 239.114 18.2011C238.023 19.2941 237.41 20.7755 237.41 22.32V37.68C237.41 39.2245 238.023 40.7058 239.114 41.7989C240.205 42.892 241.686 43.5074 243.23 43.51H254.65V50.48ZM272.8 41.48H243.23C242.216 41.4774 241.244 41.0727 240.528 40.3547C239.812 39.6367 239.41 38.6641 239.41 37.65V31H276.62V37.68C276.62 38.6923 276.219 39.6635 275.505 40.3812C274.791 41.0989 273.822 41.5047 272.81 41.51L272.8 41.48Z" fill="#B4162E"/>
<path d="M459.375 9.875H408.625C408.393 9.875 408.17 9.96719 408.006 10.1313C407.842 10.2954 407.75 10.5179 407.75 10.75V17.75C407.75 17.9821 407.842 18.2046 408.006 18.3687C408.17 18.5328 408.393 18.625 408.625 18.625H409.5V49.25C409.5 49.4821 409.592 49.7046 409.756 49.8687C409.92 50.0328 410.143 50.125 410.375 50.125H445.375V48.375H411.25V18.625H427.875V26.5C427.875 26.6584 427.918 26.8139 427.999 26.9498C428.081 27.0857 428.198 27.1969 428.337 27.2716C428.477 27.3464 428.634 27.3818 428.792 27.3741C428.951 27.3664 429.104 27.3159 429.236 27.228L431.375 25.8L433.515 27.2262C433.659 27.3222 433.828 27.3734 434.001 27.3734C434.174 27.3734 434.343 27.3222 434.486 27.2262L436.625 25.8L438.764 27.2262C438.896 27.3141 439.049 27.3646 439.207 27.3723C439.365 27.3801 439.522 27.3448 439.662 27.2703C439.802 27.1958 439.918 27.0848 440 26.9491C440.081 26.8135 440.125 26.6583 440.125 26.5V18.625H456.75V48.375H450.653V50.125H457.625C457.857 50.125 458.08 50.0328 458.244 49.8687C458.408 49.7046 458.5 49.4821 458.5 49.25V18.625H459.375C459.607 18.625 459.83 18.5328 459.994 18.3687C460.158 18.2046 460.25 17.9821 460.25 17.75V10.75C460.25 10.5179 460.158 10.2954 459.994 10.1313C459.83 9.96719 459.607 9.875 459.375 9.875ZM438.375 11.625V16.875H429.625V11.625H438.375ZM410.375 16.875H409.5V11.625H427.875V16.875H410.375ZM438.375 24.8655L437.111 24.022C436.967 23.9261 436.798 23.8749 436.625 23.8749C436.452 23.8749 436.283 23.9261 436.139 24.022L434 25.45L431.86 24.0238C431.716 23.9278 431.547 23.8766 431.374 23.8766C431.201 23.8766 431.032 23.9278 430.889 24.0238L429.625 24.8655V18.625H438.375V24.8655ZM458.5 16.875H440.125V11.625H458.5V16.875Z" fill="#B4162E"/>
<path d="M448.903 48.375H447.125V50.125H448.903V48.375Z" fill="#B4162E"/>
<path d="M441 44H420.875C420.643 44 420.42 44.0922 420.256 44.2563C420.092 44.4204 420 44.6429 420 44.875C420 45.1071 420.092 45.3296 420.256 45.4937C420.42 45.6578 420.643 45.75 420.875 45.75H441C442.857 45.75 444.637 45.0125 445.95 43.6997C447.263 42.387 448 40.6065 448 38.75C448 36.8935 447.263 35.113 445.95 33.8003C444.637 32.4875 442.857 31.75 441 31.75H422.625L424.025 30.7C424.117 30.6311 424.194 30.5447 424.253 30.4458C424.311 30.3469 424.35 30.2375 424.366 30.1237C424.382 30.01 424.376 29.8942 424.348 29.7828C424.319 29.6715 424.269 29.5669 424.2 29.475C424.131 29.3831 424.045 29.3056 423.946 29.2471C423.847 29.1885 423.737 29.15 423.624 29.1338C423.51 29.1175 423.394 29.1239 423.283 29.1524C423.172 29.1809 423.067 29.2311 422.975 29.3L419.475 31.925C419.366 32.0065 419.278 32.1122 419.217 32.2337C419.157 32.3552 419.125 32.4892 419.125 32.625C419.125 32.7608 419.157 32.8948 419.217 33.0163C419.278 33.1378 419.366 33.2435 419.475 33.325L422.975 35.95C423.161 36.0892 423.394 36.149 423.624 36.1162C423.853 36.0834 424.061 35.9607 424.2 35.775C424.339 35.5893 424.399 35.356 424.366 35.1263C424.333 34.8965 424.211 34.6892 424.025 34.55L422.625 33.5H441C442.392 33.5 443.728 34.0531 444.712 35.0377C445.697 36.0223 446.25 37.3576 446.25 38.75C446.25 40.1424 445.697 41.4777 444.712 42.4623C443.728 43.4469 442.392 44 441 44Z" fill="#B4162E"/>
<path d="M416.5 20.375H413V22.125H416.5V20.375Z" fill="#B4162E"/>
<path d="M455 20.375H451.5V22.125H455V20.375Z" fill="#B4162E"/>
<path d="M422.625 23.875H413V25.625H422.625V23.875Z" fill="#B4162E"/>
<path d="M455 23.875H445.375V25.625H455V23.875Z" fill="#B4162E"/>
</svg>
