<svg width="82" height="82" viewBox="0 0 82 82" fill="none" xmlns="http://www.w3.org/2000/svg">
<g clip-path="url(#clip0_467_16)">
<path fill-rule="evenodd" clip-rule="evenodd" d="M40.9285 65.4255C27.6221 65.4255 16.7656 54.569 16.7656 41.2627C16.7656 27.9563 27.6221 17.0518 40.9285 17.0518C54.2829 17.0518 65.1394 27.9563 65.1394 41.2627C65.1394 54.6651 54.2829 65.4255 40.9285 65.4255ZM40.9285 19.4056C28.8711 19.4056 19.0714 29.2052 19.0714 41.2627C19.0714 53.3201 28.8711 63.1197 40.9285 63.1197C52.9859 63.1197 62.7855 53.3201 62.7855 41.2627C62.7855 29.2052 52.9859 19.4056 40.9285 19.4056Z" fill="black"/>
<path fill-rule="evenodd" clip-rule="evenodd" d="M36.7492 54.3292C36.557 54.3292 36.3168 54.2331 36.1247 54.1851C36.0766 54.137 36.0286 54.0409 35.8845 53.9929L31.6092 49.7656L25.7005 43.857C24.0673 42.1757 24.0673 39.5336 25.7005 37.9484C27.3338 36.3151 30.0239 36.3151 31.6092 37.9484L36.7492 43.0404L50.2477 29.3977C51.0643 28.5811 52.0731 28.1968 53.178 28.1968C54.3309 28.1968 55.3397 28.5811 56.1083 29.3977C56.9249 30.2144 57.4053 31.2712 57.4053 32.376C57.4053 33.5289 56.9249 34.5377 56.1083 35.3063L37.5178 53.9929C37.4697 54.0409 37.3256 54.137 37.2776 54.1851C37.1335 54.2331 36.9413 54.3292 36.7972 54.3292C36.7972 54.3292 36.7972 54.3292 36.7492 54.3292ZM28.6789 39.0533C28.1985 39.0533 27.6701 39.2454 27.3338 39.5817C26.6613 40.2542 26.6613 41.4551 27.4299 42.1757L36.7492 51.4469L54.523 33.6731C54.8593 33.3368 55.0515 32.8564 55.0515 32.376C55.0515 31.8476 54.8593 31.4153 54.523 31.079C53.8505 30.4065 52.6496 30.4065 51.929 31.079L37.5178 45.5383C37.0854 45.9706 36.3168 45.9706 35.8845 45.5383C35.7884 45.4422 35.7404 45.3942 35.6923 45.2981L30.0239 39.5817C29.6877 39.1974 29.1592 39.0533 28.6789 39.0533Z" fill="black"/>
<path fill-rule="evenodd" clip-rule="evenodd" d="M41.1204 81.952C38.9587 81.952 37.2293 80.3187 35.452 78.6374C34.251 77.4845 33.0981 76.2835 31.8972 75.9473C30.7443 75.7071 29.063 76.0914 27.4777 76.5237C25.0759 77.1002 22.6259 77.6766 20.5603 76.5718C18.4947 75.3708 17.7742 72.9209 17.1016 70.519C16.6213 68.8858 16.1409 67.3005 15.3723 66.4839C14.5556 65.7153 12.8743 65.1869 11.2891 64.7065C9.03134 64.034 6.62946 63.3615 5.57264 61.44C4.51581 59.5185 5.09226 57.1646 5.71675 54.8588C6.10105 53.2736 6.58143 51.6403 6.24516 50.5354C5.95694 49.4306 4.756 48.2777 3.65114 47.0767C1.96983 45.3954 0.0483267 43.4739 0.288514 40.976C0.0483267 38.5741 1.96983 36.6526 3.65114 34.9233C4.756 33.8184 5.95694 32.6175 6.2932 31.4646C6.58143 30.4077 6.14909 28.7264 5.76479 27.1412C5.1403 24.8834 4.51581 22.4815 5.62068 20.6081C6.6775 18.6866 9.07937 18.0141 11.3371 17.3415C12.9704 16.8612 14.6037 16.4288 15.4203 15.5641C16.237 14.7475 16.6693 13.0662 17.1497 11.529C17.8222 9.12712 18.5428 6.67721 20.6084 5.47627C22.674 4.27534 25.1719 4.89982 27.5258 5.47627C29.159 5.86057 30.7923 6.29291 31.9452 6.00469C33.0981 5.7645 34.3471 4.56356 35.548 3.36262C37.2774 1.68131 39.0067 0 41.2165 0C43.4262 0 45.1555 1.72935 46.7888 3.41066C47.9897 4.56356 49.1907 5.81254 50.2475 6.10076C51.4004 6.34095 52.9856 5.95665 54.5709 5.57235C56.8767 4.94786 59.2786 4.27534 61.2001 5.42824C63.1216 6.48506 63.7941 8.79086 64.4666 11.0967C64.8989 12.6819 65.3793 14.3632 66.244 15.1318C67.1087 15.9965 68.7419 16.4769 70.3272 16.9572C72.7291 17.6298 75.179 18.3503 76.3319 20.4159C77.4367 22.3855 76.8603 24.9315 76.2358 27.3333C75.8515 28.9186 75.4672 30.5999 75.7074 31.7528C76.0436 32.8576 77.2446 34.1066 78.3975 35.3076C80.0308 37.0849 81.7601 38.8143 81.7121 40.976C81.7601 43.1857 80.0308 45.0111 78.3975 46.7405C77.2446 47.9414 76.0436 49.1904 75.7074 50.2953C75.4672 51.4482 75.8515 53.1295 76.2358 54.7147C76.8603 57.1166 77.4367 59.5665 76.3319 61.6321C75.1309 63.6977 72.633 64.4663 70.2311 65.0908C68.6459 65.5712 67.0606 66.0516 66.244 66.8202C65.3793 67.6848 64.8989 69.3661 64.4666 70.9514C63.7941 73.2572 63.1216 75.563 61.2001 76.7159C59.2786 77.7727 56.9247 77.1482 54.5709 76.5718C52.9856 76.1875 51.4004 75.7071 50.2475 76.0434C49.1426 76.2835 47.9417 77.4845 46.7888 78.6854C45.0595 80.2226 43.3301 81.952 41.1204 81.952ZM31.0325 73.5934C31.5609 73.5934 31.9933 73.6415 32.4736 73.7856C34.203 74.2179 35.6921 75.611 37.0852 76.9561C38.4783 78.3011 39.8714 79.6942 41.1204 79.6462C42.4174 79.6462 43.8105 78.2531 45.1555 76.908C46.5486 75.5149 47.9417 74.1219 49.6711 73.6415C51.4004 73.1611 53.3219 73.6895 55.1954 74.1699C56.9728 74.6503 58.9423 75.1787 59.9991 74.5542C61.0559 73.9777 61.5844 72.0562 62.1128 70.2308C62.6412 68.3093 63.2657 66.3878 64.5146 65.0908C65.7636 63.8899 67.6371 63.3615 69.5105 62.833C71.432 62.3046 73.4977 61.7282 74.1702 60.4312C74.8427 59.2302 74.3623 57.1646 73.93 55.2431C73.4496 53.3697 72.9692 51.4001 73.4016 49.7188C73.8339 47.9895 75.227 46.5003 76.6681 45.1072C77.9651 43.7141 79.3582 42.321 79.3102 41.0721V40.976C79.3582 39.727 77.9651 38.3339 76.6681 36.9408C75.3231 35.5477 73.8339 34.0586 73.4016 32.3292C72.9212 30.5999 73.4496 28.6784 73.93 26.7569C74.3623 24.7873 74.8907 22.7217 74.1702 21.5208C73.4496 20.2718 71.432 19.7434 69.5105 19.1189C67.6371 18.5905 65.7156 18.0141 64.4666 16.8131C63.1696 15.5641 62.5931 13.5946 62.0647 11.6731C61.5363 9.89572 61.0079 8.02226 59.903 7.39777C58.7982 6.82132 56.9247 7.3017 55.0513 7.73404C53.1778 8.21441 51.2563 8.74282 49.5269 8.26245C47.7976 7.83011 46.4045 6.43702 45.0114 4.9959C43.6664 3.69889 42.2733 2.3058 41.0723 2.3058C39.8234 2.3058 38.3822 3.60281 37.0852 4.94786C35.6921 6.34095 34.203 7.73404 32.4256 8.16637C30.7443 8.59871 28.7267 8.0703 26.9013 7.686C24.9317 7.20562 22.8661 6.67721 21.6652 7.39777C20.4162 8.16637 19.8398 10.1359 19.2633 12.0574C18.7349 13.9309 18.2065 15.8043 17.0056 17.0533C15.7566 18.3503 13.8351 18.9268 11.9136 19.4552C10.0401 19.9836 8.16666 20.56 7.49414 21.6649C6.91769 22.7217 7.35003 24.6913 7.8304 26.4687C8.31078 28.3421 8.83919 30.2636 8.35881 31.993C7.87844 33.7223 6.48535 35.1154 5.09226 36.4605C3.65114 37.9496 2.21001 39.3907 2.4502 40.7358C2.4502 40.8799 2.4502 40.976 2.4502 41.0721C2.21001 42.4651 3.65114 43.8582 5.1403 45.3954C6.48535 46.7885 7.87844 48.1816 8.35881 49.8629C8.83919 51.5923 8.31078 53.5138 7.8304 55.3872C7.35003 57.1646 6.82161 59.1342 7.4461 60.191C8.02255 61.2958 9.94405 61.8243 11.8175 62.4007C13.691 62.9291 15.6125 63.5056 16.9095 64.7545C18.0624 66.0516 18.6869 67.925 19.2153 69.7504C19.7437 71.72 20.3682 73.7856 21.6172 74.4581C22.8181 75.0826 24.8837 74.6503 26.8052 74.1699C28.3424 73.8817 29.7355 73.5934 31.0325 73.5934Z" fill="black"/>
</g>
<defs>
<clipPath id="clip0_467_16">
<rect width="82" height="82" fill="white"/>
</clipPath>
</defs>
</svg>
