<svg width="83" height="83" viewBox="0 0 83 83" fill="none" xmlns="http://www.w3.org/2000/svg">
<g clip-path="url(#clip0_467_26)">
<path d="M82.1998 0.0985625C82.039 0.031125 81.8704 0.0116719 81.7031 0.0116719V0H64.8438H49.2812H33.7188C33.3738 0 33.0444 0.136172 32.8019 0.379984L17.2407 15.9412C17.0059 16.1759 16.8594 16.5001 16.8594 16.8594V49.2812C16.8594 49.9984 17.4391 50.5781 18.1562 50.5781H66.1406C66.4999 50.5781 66.8241 50.4316 67.0588 50.1968L82.62 34.6356C82.8638 34.3931 83 34.0637 83 33.7188V1.29688C83 0.772937 82.6849 0.298281 82.1998 0.0985625ZM65.6037 15.5625H52.4119L65.3807 2.59375H78.5725L65.6037 15.5625ZM61.7131 2.59375L48.3644 15.9425C48.1205 16.185 47.9844 16.5144 47.9844 16.8594V28.7024L46.1104 27.4522C45.6746 27.1605 45.1079 27.1605 44.6722 27.4522L41.5 29.5662L38.3291 27.4522C38.1113 27.307 37.8597 27.2344 37.6094 27.2344C37.3591 27.2344 37.1075 27.307 36.8896 27.4522L35.0156 28.7024V17.3963L49.8182 2.59375H61.7131ZM34.2557 2.59375H46.1506L33.1818 15.5625H21.2869L34.2557 2.59375ZM64.8438 47.9844H19.4531V18.1562H32.4219V31.125C32.4219 31.6035 32.6851 32.0432 33.1066 32.2688C33.5268 32.4945 34.0404 32.4686 34.4372 32.204L37.6094 30.0901L40.7802 32.204C41.216 32.4958 41.7827 32.4958 42.2185 32.204L45.3906 30.0901L48.5615 32.204C48.7781 32.348 49.0297 32.4219 49.2812 32.4219C49.4913 32.4219 49.7014 32.3713 49.8934 32.2688C50.3149 32.0432 50.5781 31.6035 50.5781 31.125V18.1562H64.8438V47.9844ZM80.4062 33.1818L67.4375 46.1506V17.3963L80.4062 4.42753V33.1818Z" fill="black"/>
<path d="M24.6406 76.5156C25.3578 76.5156 25.9375 75.9359 25.9375 75.2188H29.5221L43.387 82.1518C43.9861 82.4514 44.6358 82.6019 45.283 82.6019C46.0209 82.6019 46.7575 82.4086 47.4176 82.0235L75.7103 65.5181C77.0071 64.762 77.8125 63.3601 77.8125 61.8583C77.8125 60.6043 77.2613 59.4215 76.3016 58.6136C75.3432 57.8069 74.0801 57.4671 72.8481 57.6811L47.1284 62.154L39.8231 54.8487C39.5806 54.6049 39.2512 54.4688 38.9062 54.4688H25.9375C25.9375 53.7516 25.3578 53.1719 24.6406 53.1719H19.4531H0V55.7656H18.1562V73.9219H0V76.5156H19.4531H24.6406ZM38.3693 57.0625L48.5874 67.2806C49.0284 67.7215 49.2812 68.3323 49.2812 68.9574C49.2812 70.2647 48.2178 71.3281 46.9106 71.3281C46.2868 71.3281 45.6746 71.0752 45.2337 70.6343L38.5263 63.9269L36.6925 65.7606L43.3999 72.4681C44.3376 73.4057 45.5839 73.9219 46.9106 73.9219C49.647 73.9219 51.875 71.6938 51.875 68.9574C51.875 67.632 51.3588 66.3844 50.4212 65.4468L49.3707 64.3963L73.2903 60.236C73.774 60.1491 74.2591 60.2839 74.6313 60.5978C75.0048 60.9116 75.2188 61.3707 75.2188 61.857C75.2188 62.4393 74.9062 62.984 74.403 63.2771L46.1117 79.7825C45.6318 80.0626 45.047 80.0807 44.5477 79.8317L30.4091 72.7625C30.2289 72.6717 30.0291 72.625 29.8281 72.625H25.9375V57.0625H38.3693ZM23.3438 73.9219H20.75V55.7656H23.3438V73.9219Z" fill="black"/>
<path d="M11.6719 11.6719C11.6719 12.389 12.2516 12.9688 12.9688 12.9688C13.6859 12.9688 14.2656 12.389 14.2656 11.6719C14.2656 9.52684 16.0112 7.78125 18.1562 7.78125C18.8734 7.78125 19.4531 7.20155 19.4531 6.48438C19.4531 5.7672 18.8734 5.1875 18.1562 5.1875C16.0112 5.1875 14.2656 3.44191 14.2656 1.29688C14.2656 0.579703 13.6859 0 12.9688 0C12.2516 0 11.6719 0.579703 11.6719 1.29688C11.6719 3.44191 9.92628 5.1875 7.78125 5.1875C7.06408 5.1875 6.48438 5.7672 6.48438 6.48438C6.48438 7.20155 7.06408 7.78125 7.78125 7.78125C9.92628 7.78125 11.6719 9.52684 11.6719 11.6719ZM12.9688 5.18361C13.3384 5.67642 13.7767 6.11477 14.2695 6.48438C13.7767 6.85398 13.3384 7.29233 12.9688 7.78514C12.5991 7.29233 12.1608 6.85398 11.668 6.48438C12.1608 6.11477 12.5991 5.67642 12.9688 5.18361Z" fill="black"/>
</g>
<defs>
<clipPath id="clip0_467_26">
<rect width="83" height="83" fill="white"/>
</clipPath>
</defs>
</svg>
