<svg width="98" height="16" viewBox="0 0 98 16" fill="none" xmlns="http://www.w3.org/2000/svg">
<path d="M3.40343 15.298L8.27608 11.7399L13.1838 15.298L11.2733 9.72422L15.7954 6.69195H10.2917L8.27608 0.715068L6.29547 6.69195H0.756773L5.27887 9.72422L3.40343 15.298ZM23.7347 15.298L28.6073 11.7399L33.515 15.298L31.6045 9.72422L36.1266 6.69195H30.623L28.6073 0.715068L26.6267 6.69195H21.088L25.6101 9.72422L23.7347 15.298ZM44.0659 15.298L48.9386 11.7399L53.8463 15.298L51.9358 9.72422L56.4579 6.69195H50.9542L48.9386 0.715068L46.958 6.69195H41.4193L45.9414 9.72422L44.0659 15.298ZM64.3972 15.298L69.2698 11.7399L74.1775 15.298L72.267 9.72422L76.7891 6.69195H71.2855L69.2698 0.715068L67.2892 6.69195H61.7505L66.2726 9.72422L64.3972 15.298ZM84.7284 15.298L89.601 11.7399L94.5088 15.298L92.5983 9.72422L97.1204 6.69195H91.6167L89.601 0.715068L87.6204 6.69195H82.0817L86.6038 9.72422L84.7284 15.298Z" fill="#FFD600"/>
</svg>
