<svg width="343" height="290" viewBox="0 0 343 290" fill="none" xmlns="http://www.w3.org/2000/svg">
<g clip-path="url(#clip0_257_125)">
<path d="M157.922 36C163.429 36.4133 169.055 35.6 174.482 36.4533C179.709 42.8933 179.935 51.9467 178.655 59.7733C176.655 72.7867 167.815 83.6533 157.375 91.1333C142.029 102.347 123.575 107.813 106.055 114.573C102.775 116.107 98.6955 117.267 96.9488 120.733C96.8421 124.64 101.015 126.067 104.015 127.187C113.949 130.36 124.402 132.893 132.909 139.24C142.789 146.147 147.895 157.413 154.629 167.013C163.135 179.453 171.189 193.12 184.255 201.32C187.775 204 192.789 203.213 196.122 206.08C187.375 206.52 178.602 206.413 169.855 206.24C164.482 206.413 161.175 201.627 158.215 197.893C151.055 188.067 144.735 177.667 138.002 167.56C130.522 156.253 123.402 144.227 112.389 135.947C107.869 132.293 102.482 129.92 97.9088 126.36C94.7088 124.12 94.5755 119.133 97.5355 116.627C103.655 110.68 112.015 107.96 119.375 103.933C133.869 96.7734 149.122 88.48 157.535 74.04C164.135 62.72 166.269 47 157.922 36Z" fill="#610000"/>
<path d="M301.935 36.04C307.522 36.1734 313.095 36.0534 318.682 36.1867C326.015 47.4934 323.949 62.6 317.589 73.8534C308.522 89.0667 292.309 97.9734 276.429 104.56C296.709 111.413 314.949 124.88 326.695 142.88C338.415 160.32 343.295 181.787 341.909 202.627C341.335 203.267 340.535 203.453 339.495 203.187C341.429 180.52 335.029 157.107 321.042 139.067C309.762 123.973 293.629 112.707 275.802 106.733C272.909 105.573 270.015 107.147 267.335 108.12C262.375 110.12 257.069 111.387 252.535 114.307C249.162 116.627 244.269 116.04 241.602 119.48C239.455 122.68 243.335 125.56 246.055 126.427C256.829 130.28 268.509 132.6 277.709 139.827C286.042 145.88 290.749 155.267 296.402 163.587C304.522 175.707 312.189 188.573 323.509 198.04C328.095 201.52 333.669 205.213 339.735 204.027C342.309 208.12 340.455 212.907 339.509 217.213C333.615 241.947 317.335 264.027 295.349 276.827C265.642 294.2 226.269 293.693 197.349 274.867C178.362 261.76 161.429 245.8 146.975 227.84C126.709 202.587 111.549 173.787 92.4687 147.707C91.3087 146.013 90.042 144.347 89.4287 142.387C89.562 141.88 89.8154 140.88 89.9487 140.387C105.722 160.32 117.882 182.827 132.389 203.68C149.949 230.387 171.669 254.8 198.482 272.493C215.082 283.467 235.442 288.333 255.229 287.027C272.442 285.427 289.402 279.4 303.149 268.787C322.869 253.893 336.229 230.88 339.175 206.333C330.709 206.24 322.242 206.52 313.802 206.227C308.162 206.307 304.762 201.16 301.709 197.2C291.322 182.52 282.082 167.067 271.802 152.32C265.589 143.507 257.695 135.787 248.229 130.533C244.949 128.4 240.509 126.64 239.442 122.48C238.642 119.413 241.162 117.173 242.949 115.12C241.575 112.827 239.789 110.4 240.375 107.56C240.629 103.88 244.255 102.2 246.962 100.467C251.535 100.747 258.842 101.96 263.415 101.653C263.575 102.347 262.5 103 260.989 103.733C258.055 103.493 255.482 102.867 252.562 102.52C253.535 104.253 254.469 106.013 255.389 107.787C258.095 106.507 260.842 105.293 263.642 104.213L260.989 103.733C261.789 103.027 262.589 102.333 263.415 101.653C264.322 101.72 266.135 101.84 267.029 101.907C282.149 94.8267 297.522 84.6667 304.202 68.68C308.389 58.3067 309.122 45.3067 301.935 36.04Z" fill="#610000"/>
<path d="M57.562 36.3867C71.002 35.7734 84.4687 36.3067 97.9221 36.0801C100.282 36.2401 102.975 35.5867 104.922 37.2934C100.682 38.2667 95.5354 38.7201 93.0954 42.8934C89.1487 49.4934 89.2421 57.5201 88.7487 64.9467C88.1487 86.3067 88.6154 107.68 88.4287 129.053C88.5487 132.84 87.7887 136.987 89.9487 140.387C89.8154 140.88 89.5621 141.88 89.4287 142.387C88.6021 144.933 88.3354 147.613 88.4154 150.293C88.5354 162.693 88.2154 175.133 89.4554 187.493C90.1487 192.133 90.9621 197.12 94.0954 200.813C96.9354 204.08 101.629 203.747 105.215 205.667C95.7621 207.053 86.1354 206.027 76.6154 206.333C70.0021 206.187 63.282 206.947 56.7887 205.4C46.482 206.987 35.4554 206.453 26.0287 201.627C12.4154 195 1.94872 181.48 0.348721 166.253C-0.344613 158.413 -0.237947 150.213 2.86872 142.853C7.38872 130.84 17.1487 121.013 29.0554 116.24C43.8287 110.213 61.2421 112.973 74.0287 122.32C73.9487 101.84 74.4687 81.3601 73.5487 60.8934C72.9621 54.2401 72.7354 46.7601 68.2154 41.4001C65.5354 38.0534 60.5887 39.0801 57.562 36.3867ZM38.6154 116.067C17.9087 118.96 1.56205 138.92 2.10872 159.693C1.89539 174.693 10.1487 189.493 22.9754 197.253C33.122 204 46.0554 205.013 57.7621 202.773C59.7354 204.253 62.2687 204.867 64.4821 203.44C71.2554 200.8 72.3487 192.613 73.162 186.32C74.642 165.973 73.9621 145.547 73.9487 125.16C64.1487 117.213 51.0554 113.6 38.6154 116.067Z" fill="#620000"/>
<path d="M201.575 37.3068C202.749 36.2268 204.269 36.0001 205.815 36.1068C219.922 36.1468 234.029 36.0535 248.149 36.1601C248.162 36.5335 248.215 37.2535 248.229 37.6135C242.242 37.7601 236.295 41.1868 235.029 47.4001C231.269 62.7068 232.882 78.6935 232.455 94.3201C232.522 120.067 232.322 145.813 232.562 171.56C233.095 180.8 232.375 190.747 236.882 199.173C239.269 203.853 245.069 203.573 249.122 205.827C239.229 206.893 229.242 206.08 219.309 206.333C213.335 206.253 207.322 206.64 201.375 205.853C205.415 203.573 211.229 203.853 213.629 199.173C218.455 189.907 217.389 179.013 217.975 168.907C218.082 136.48 218.175 104.067 217.935 71.6401C217.469 62.3468 218.122 52.4668 214.002 43.8535C211.802 39.0135 206.175 38.2135 201.575 37.3068Z" fill="#620000"/>
<path d="M96.8353 8.23201H97.3043C97.4816 8.23201 97.6263 8.20868 97.7383 8.16201C97.8503 8.11068 97.9506 8.03134 98.0393 7.92401L101.091 4.28401C101.198 4.14868 101.308 4.05534 101.42 4.00401C101.537 3.94801 101.681 3.92001 101.854 3.92001H103.254L99.6493 8.17601C99.5513 8.29734 99.4556 8.40001 99.3623 8.48401C99.2736 8.56334 99.1756 8.62868 99.0683 8.68001C99.2083 8.73134 99.3343 8.80368 99.4463 8.89701C99.5583 8.98568 99.668 9.10468 99.7753 9.25401L103.513 14H102.085C101.982 14 101.894 13.993 101.819 13.979C101.749 13.965 101.686 13.944 101.63 13.916C101.579 13.888 101.532 13.853 101.49 13.811C101.453 13.769 101.418 13.7223 101.385 13.671L98.2353 9.82101C98.1886 9.76034 98.142 9.70901 98.0953 9.66701C98.0486 9.62501 97.9926 9.59001 97.9273 9.56201C97.8666 9.53401 97.7966 9.51534 97.7173 9.50601C97.638 9.49201 97.5446 9.48501 97.4373 9.48501H96.8353V14H95.1973V3.92001H96.8353V8.23201ZM123.978 10.22L122.592 6.53801C122.48 6.25334 122.366 5.89168 122.249 5.45301C122.198 5.67234 122.142 5.87534 122.081 6.06201C122.021 6.24401 121.965 6.40501 121.913 6.54501L120.527 10.22H123.978ZM127.079 14H125.812C125.668 14 125.551 13.965 125.462 13.895C125.374 13.8203 125.306 13.7293 125.259 13.622L124.419 11.396H120.079L119.239 13.622C119.202 13.7153 119.137 13.8017 119.043 13.881C118.95 13.9603 118.833 14 118.693 14H117.426L121.423 3.92001H123.082L127.079 14ZM148.08 12.628V14H142.256V3.92001H143.894V12.628H148.08ZM168.822 10.22L167.436 6.53801C167.324 6.25334 167.21 5.89168 167.093 5.45301C167.042 5.67234 166.986 5.87534 166.925 6.06201C166.864 6.24401 166.808 6.40501 166.757 6.54501L165.371 10.22H168.822ZM171.923 14H170.656C170.511 14 170.395 13.965 170.306 13.895C170.217 13.8203 170.15 13.7293 170.103 13.622L169.263 11.396H164.923L164.083 13.622C164.046 13.7153 163.98 13.8017 163.887 13.881C163.794 13.9603 163.677 14 163.537 14H162.27L166.267 3.92001H167.926L171.923 14ZM188.737 8.23201H189.206C189.384 8.23201 189.528 8.20868 189.64 8.16201C189.752 8.11068 189.853 8.03134 189.941 7.92401L192.993 4.28401C193.101 4.14868 193.21 4.05534 193.322 4.00401C193.439 3.94801 193.584 3.92001 193.756 3.92001H195.156L191.551 8.17601C191.453 8.29734 191.358 8.40001 191.264 8.48401C191.176 8.56334 191.078 8.62868 190.97 8.68001C191.11 8.73134 191.236 8.80368 191.348 8.89701C191.46 8.98568 191.57 9.10468 191.677 9.25401L195.415 14H193.987C193.885 14 193.796 13.993 193.721 13.979C193.651 13.965 193.588 13.944 193.532 13.916C193.481 13.888 193.434 13.853 193.392 13.811C193.355 13.769 193.32 13.7223 193.287 13.671L190.137 9.82101C190.091 9.76034 190.044 9.70901 189.997 9.66701C189.951 9.62501 189.895 9.59001 189.829 9.56201C189.769 9.53401 189.699 9.51534 189.619 9.50601C189.54 9.49201 189.447 9.48501 189.339 9.48501H188.737V14H187.099V3.92001H188.737V8.23201ZM213.473 8.75001C213.846 8.75001 214.173 8.70568 214.453 8.61701C214.733 8.52368 214.966 8.39534 215.153 8.23201C215.339 8.06868 215.479 7.87501 215.573 7.65101C215.666 7.42234 215.713 7.17034 215.713 6.89501C215.713 6.34434 215.531 5.92434 215.167 5.63501C214.803 5.34568 214.252 5.20101 213.515 5.20101H212.185V8.75001H213.473ZM218.219 14H216.756C216.466 14 216.256 13.888 216.126 13.664L213.774 10.269C213.694 10.1523 213.608 10.0683 213.515 10.017C213.421 9.96568 213.281 9.94001 213.095 9.94001H212.185V14H210.547V3.92001H213.515C214.177 3.92001 214.747 3.98768 215.223 4.12301C215.703 4.25834 216.098 4.45201 216.406 4.70401C216.714 4.95134 216.94 5.25001 217.085 5.60001C217.234 5.95001 217.309 6.33968 217.309 6.76901C217.309 7.11901 217.255 7.44568 217.148 7.74901C217.045 8.05234 216.893 8.32768 216.693 8.57501C216.497 8.82234 216.254 9.03701 215.965 9.21901C215.675 9.40101 215.346 9.54334 214.978 9.64601C215.178 9.76734 215.351 9.93768 215.496 10.157L218.219 14ZM235.078 14H233.433V3.92001H235.078V14ZM258.404 5.28501H255.261V14H253.63V5.28501H250.48V3.92001H258.404V5.28501ZM275.451 14H273.806V3.92001H275.451V14ZM297.111 5.64201C297.059 5.72601 297.006 5.78901 296.95 5.83101C296.894 5.86834 296.824 5.88701 296.74 5.88701C296.651 5.88701 296.551 5.84968 296.439 5.77501C296.331 5.70034 296.196 5.61868 296.033 5.53001C295.874 5.43668 295.685 5.35268 295.466 5.27801C295.246 5.19868 294.985 5.15901 294.682 5.15901C294.402 5.15901 294.154 5.19401 293.94 5.26401C293.73 5.33401 293.552 5.43201 293.408 5.55801C293.263 5.68401 293.153 5.83334 293.079 6.00601C293.009 6.17401 292.974 6.35834 292.974 6.55901C292.974 6.81568 293.041 7.03034 293.177 7.20301C293.312 7.37101 293.489 7.51568 293.709 7.63701C293.933 7.75834 294.187 7.86568 294.472 7.95901C294.756 8.04768 295.046 8.14334 295.34 8.24601C295.638 8.34868 295.93 8.46534 296.215 8.59601C296.499 8.72668 296.751 8.89234 296.971 9.09301C297.195 9.29368 297.374 9.53868 297.51 9.82801C297.645 10.1173 297.713 10.4697 297.713 10.885C297.713 11.333 297.636 11.753 297.482 12.145C297.328 12.537 297.104 12.88 296.81 13.174C296.52 13.4633 296.161 13.692 295.732 13.86C295.307 14.028 294.822 14.112 294.276 14.112C293.954 14.112 293.639 14.0793 293.331 14.014C293.027 13.9533 292.736 13.867 292.456 13.755C292.18 13.6383 291.921 13.4983 291.679 13.335C291.436 13.1717 291.219 12.9897 291.028 12.789L291.504 12.005C291.546 11.9397 291.599 11.8883 291.665 11.851C291.73 11.8137 291.802 11.795 291.882 11.795C291.989 11.795 292.108 11.8463 292.239 11.949C292.369 12.047 292.526 12.1567 292.708 12.278C292.894 12.3947 293.118 12.5043 293.38 12.607C293.641 12.705 293.954 12.754 294.318 12.754C294.91 12.754 295.368 12.6093 295.69 12.32C296.016 12.0307 296.18 11.6317 296.18 11.123C296.18 10.8383 296.112 10.6073 295.977 10.43C295.841 10.248 295.662 10.0963 295.438 9.97501C295.218 9.85368 294.966 9.75101 294.682 9.66701C294.397 9.58301 294.108 9.49434 293.814 9.40101C293.52 9.30301 293.23 9.19101 292.946 9.06501C292.661 8.93434 292.407 8.76634 292.183 8.56101C291.963 8.35101 291.786 8.09434 291.651 7.79101C291.515 7.48301 291.448 7.10034 291.448 6.64301C291.448 6.27901 291.518 5.92668 291.658 5.58601C291.802 5.24534 292.01 4.94434 292.281 4.68301C292.556 4.41701 292.894 4.20468 293.296 4.04601C293.697 3.88734 294.154 3.80801 294.668 3.80801C295.246 3.80801 295.776 3.89901 296.257 4.08101C296.742 4.26301 297.16 4.52201 297.51 4.85801L297.111 5.64201Z" fill="#610000"/>
</g>
<defs>
<clipPath id="clip0_257_125">
<rect width="343" height="290" fill="white"/>
</clipPath>
</defs>
</svg>
