<svg width="20" height="20" viewBox="0 0 20 20" fill="none" xmlns="http://www.w3.org/2000/svg">
<path d="M13.333 2.5H0.833008V13.3333H13.333V2.5Z" stroke="#808080" stroke-width="1.66667" stroke-linecap="round" stroke-linejoin="round"/>
<path d="M13.333 6.66666H16.6663L19.1663 9.16666V13.3333H13.333V6.66666Z" stroke="#808080" stroke-width="1.66667" stroke-linecap="round" stroke-linejoin="round"/>
<path d="M4.58333 17.5C5.73393 17.5 6.66667 16.5673 6.66667 15.4167C6.66667 14.2661 5.73393 13.3333 4.58333 13.3333C3.43274 13.3333 2.5 14.2661 2.5 15.4167C2.5 16.5673 3.43274 17.5 4.58333 17.5Z" stroke="#808080" stroke-width="1.66667" stroke-linecap="round" stroke-linejoin="round"/>
<path d="M15.4163 17.5C16.5669 17.5 17.4997 16.5673 17.4997 15.4167C17.4997 14.2661 16.5669 13.3333 15.4163 13.3333C14.2657 13.3333 13.333 14.2661 13.333 15.4167C13.333 16.5673 14.2657 17.5 15.4163 17.5Z" stroke="#808080" stroke-width="1.66667" stroke-linecap="round" stroke-linejoin="round"/>
</svg>
